<?xml version="1.0" encoding="utf-8"?>
<!-- Generator: Adobe Illustrator 22.0.1, SVG Export Plug-In . SVG Version: 6.00 Build 0)  -->
<svg version="1.1" xmlns="http://www.w3.org/2000/svg" xmlns:xlink="http://www.w3.org/1999/xlink" x="0px" y="0px"
	 viewBox="0 0 332.8 197.1" style="enable-background:new 0 0 332.8 197.1;" xml:space="preserve">
<style type="text/css">
	.st0{display:none;}
	.st1{display:inline;opacity:0.55;fill:#3F5B72;}
	
		.st2{fill:none;stroke:#FFFFFF;stroke-width:0.75;stroke-linecap:round;stroke-linejoin:round;stroke-miterlimit:10;stroke-dasharray:6,4;}
	.st3{fill:none;stroke:#FFFFFF;stroke-width:0.5;stroke-linecap:round;stroke-linejoin:round;stroke-miterlimit:10;}
	.st4{fill:none;stroke:#FFFFFF;stroke-width:0.75;stroke-linecap:round;stroke-linejoin:round;stroke-miterlimit:10;}
	.st5{opacity:0.7;fill:none;stroke:#FFFFFF;stroke-miterlimit:10;enable-background:new    ;}
	.st6{fill:none;stroke:#FFFFFF;stroke-miterlimit:10;}
</style>
<g id="Layer_2" class="st0">
	<path class="st1" d="M2046.2,1154.1h-3747.9c-3.3,0-6-2.7-6-7V-935.8c0-2.3,2.7-5,6-5h3747.9c3.3,0,6,2.7,6,6v2082.9
		C2052.2,1151.4,2049.5,1154.1,2046.2,1154.1z"/>
</g>
<g id="Layer_1">
	<g id="Layer_2_1_">
	</g>
	<g id="Layer_1_1_">
		<polyline class="st2" points="0.7,195.7 331,195.7 331,1.1 0.7,1.1 0.7,195.7 		"/>
		<line class="st3" x1="184.4" y1="108.7" x2="184.4" y2="115.9"/>
		<line class="st3" x1="184.4" y1="117.5" x2="184.4" y2="120.1"/>
		<line class="st3" x1="185.7" y1="108.7" x2="185.7" y2="115.9"/>
		<line class="st3" x1="185.7" y1="117.5" x2="185.7" y2="120.1"/>
		<line class="st3" x1="283.2" y1="164.2" x2="240.1" y2="164.2"/>
		<line class="st3" x1="266.7" y1="158.8" x2="264.1" y2="158.8"/>
		<line class="st3" x1="258" y1="158.8" x2="252.8" y2="158.8"/>
		<line class="st3" x1="285.3" y1="151.2" x2="239.5" y2="151.2"/>
		<line class="st3" x1="241.7" y1="151" x2="239.1" y2="151"/>
		<line class="st3" x1="239.5" y1="151.2" x2="223.9" y2="151.2"/>
		<line class="st3" x1="238.7" y1="151.6" x2="224.2" y2="151.6"/>
		<line class="st3" x1="285.8" y1="151.8" x2="284" y2="151.8"/>
		<line class="st3" x1="283.2" y1="151.8" x2="271" y2="151.8"/>
		<line class="st3" x1="270.2" y1="151.8" x2="252.8" y2="151.8"/>
		<line class="st3" x1="252.1" y1="151.8" x2="240.1" y2="151.8"/>
		<line class="st3" x1="285.3" y1="140.9" x2="167.4" y2="140.9"/>
		<line class="st3" x1="204.5" y1="130.5" x2="204" y2="130.5"/>
		<line class="st4" x1="285.3" y1="141.5" x2="271.4" y2="141.5"/>
		<line class="st4" x1="270.4" y1="141.5" x2="253" y2="141.5"/>
		<line class="st4" x1="251.9" y1="141.5" x2="240" y2="141.5"/>
		<line class="st4" x1="239" y1="141.5" x2="223.9" y2="141.5"/>
		<line class="st3" x1="239.7" y1="97.5" x2="169.3" y2="97.5"/>
		<line class="st3" x1="239.7" y1="97.2" x2="169.5" y2="97.1"/>
		<line class="st3" x1="252.2" y1="105.9" x2="252.2" y2="108.4"/>
		<polyline class="st3" points="239.2,97.8 239.2,108.4 239.2,108.7 239.7,108.7 239.7,108.4 239.7,108.4 239.7,108.7 239.2,108.7 
			239.2,108.4 239.2,108.4 		"/>
		<line class="st3" x1="239.7" y1="97.8" x2="239.7" y2="108.4"/>
		<polyline class="st3" points="239.2,97.8 239.2,97.5 239.7,97.5 239.7,97.8 239.7,97.8 239.7,97.6 239.2,97.6 239.2,97.8 
			239.2,97.8 		"/>
		<polyline class="st3" points="252.2,108.4 252.2,108.7 252.7,108.7 252.7,108.4 252.7,108.4 252.7,108.7 252.2,108.7 252.2,108.4 
			252.2,108.4 		"/>
		<line class="st3" x1="252.7" y1="105.9" x2="252.7" y2="108.4"/>
		<polyline class="st3" points="226.3,97.8 226.3,108.4 226.3,108.7 226.8,108.7 226.8,108.4 226.8,108.4 226.8,108.7 226.3,108.7 
			226.3,108.4 226.3,108.4 		"/>
		<line class="st3" x1="226.8" y1="97.8" x2="226.8" y2="108.4"/>
		<polyline class="st3" points="226.3,97.8 226.3,97.5 226.8,97.5 226.8,97.8 226.8,97.8 226.8,97.6 226.3,97.6 226.3,97.8 
			226.3,97.8 		"/>
		<polyline class="st3" points="213.3,97.8 213.3,108.4 213.3,108.7 213.8,108.7 213.8,108.4 213.8,108.4 213.8,108.7 213.3,108.7 
			213.3,108.4 213.3,108.4 		"/>
		<line class="st3" x1="213.8" y1="97.8" x2="213.8" y2="108.4"/>
		<polyline class="st3" points="213.3,97.8 213.3,97.5 213.8,97.5 213.8,97.8 213.8,97.8 213.8,97.6 213.3,97.6 213.3,97.8 
			213.3,97.8 		"/>
		<polyline class="st3" points="200.3,97.8 200.3,108.4 200.3,108.7 200.8,108.7 200.8,108.4 200.8,108.4 200.8,108.7 200.3,108.7 
			200.3,108.4 200.3,108.4 		"/>
		<line class="st3" x1="200.8" y1="97.8" x2="200.8" y2="108.4"/>
		<polyline class="st3" points="200.3,97.8 200.3,97.5 200.8,97.5 200.8,97.8 200.8,97.8 200.8,97.6 200.3,97.6 200.3,97.8 
			200.3,97.8 		"/>
		<polyline class="st3" points="184.8,97.8 184.8,108.4 184.8,108.7 185.3,108.7 185.3,108.4 185.3,108.4 185.3,108.7 184.8,108.7 
			184.8,108.4 184.8,108.4 		"/>
		<line class="st3" x1="185.3" y1="97.8" x2="185.3" y2="108.4"/>
		<polyline class="st3" points="184.8,97.8 184.8,97.5 185.3,97.5 185.3,97.8 185.3,97.8 185.3,97.6 184.8,97.6 184.8,97.8 
			184.8,97.8 		"/>
		<polyline class="st3" points="271,153.3 270.2,153.3 270.2,151.8 		"/>
		<line class="st3" x1="271" y1="151.8" x2="271" y2="153.3"/>
		<polyline class="st4" points="271.4,142.9 270.4,142.9 270.4,141.5 		"/>
		<line class="st4" x1="271.4" y1="141.5" x2="271.4" y2="142.9"/>
		<polyline class="st3" points="252.8,153.3 252.1,153.3 252.1,151.8 		"/>
		<line class="st3" x1="252.8" y1="151.8" x2="252.8" y2="153.4"/>
		<line class="st4" x1="251.9" y1="141.5" x2="251.9" y2="142.9"/>
		<line class="st4" x1="253" y1="141.5" x2="253" y2="142.9"/>
		<line class="st3" x1="239.5" y1="151.8" x2="239.5" y2="152.8"/>
		<line class="st3" x1="239.5" y1="153.4" x2="239.5" y2="164.8"/>
		<polyline class="st4" points="240,142.9 239,142.9 239,141.5 		"/>
		<line class="st4" x1="240" y1="141.5" x2="240" y2="142.9"/>
		<line class="st3" x1="271" y1="153.3" x2="283.5" y2="153.3"/>
		<line class="st3" x1="239.7" y1="108.7" x2="253.1" y2="108.7"/>
		<polyline class="st3" points="239.2,108.7 225.9,108.7 212.9,108.7 184.4,108.7 169.2,108.7 		"/>
		<line class="st4" x1="223.3" y1="141.5" x2="223.3" y2="151.8"/>
		<line class="st3" x1="223.9" y1="141.5" x2="223.9" y2="152.8"/>
		<line class="st3" x1="169.7" y1="127.4" x2="175.2" y2="127.4"/>
		<line class="st3" x1="198.6" y1="127.4" x2="204" y2="127.4"/>
		<line class="st3" x1="169.7" y1="127.9" x2="175.2" y2="127.9"/>
		<line class="st3" x1="198.6" y1="127.9" x2="204" y2="127.9"/>
		<polyline class="st3" points="276.3,120.1 252.1,120.1 220.6,120.1 169.7,120.1 		"/>
		<polyline class="st3" points="252.1,120.5 220.6,120.5 169.7,120.5 		"/>
		<line class="st3" x1="240.1" y1="151.8" x2="240.1" y2="164.2"/>
		<line class="st3" x1="199.9" y1="108.7" x2="199.9" y2="115.9"/>
		<line class="st3" x1="199.9" y1="117.5" x2="199.9" y2="120.1"/>
		<line class="st3" x1="201.2" y1="108.7" x2="201.2" y2="115.9"/>
		<line class="st3" x1="201.2" y1="117.5" x2="201.2" y2="120.1"/>
		<line class="st3" x1="212.9" y1="108.7" x2="212.9" y2="115.9"/>
		<line class="st3" x1="212.9" y1="117.5" x2="212.9" y2="120.1"/>
		<line class="st3" x1="214.2" y1="108.7" x2="214.2" y2="115.9"/>
		<line class="st3" x1="214.2" y1="117.5" x2="214.2" y2="120.1"/>
		<line class="st3" x1="225.9" y1="108.7" x2="225.9" y2="115.9"/>
		<line class="st3" x1="225.9" y1="117.5" x2="225.9" y2="120.1"/>
		<line class="st3" x1="227.2" y1="108.7" x2="227.2" y2="115.9"/>
		<line class="st3" x1="227.2" y1="117.5" x2="227.2" y2="120.1"/>
		<line class="st3" x1="238.8" y1="108.7" x2="238.8" y2="115.9"/>
		<line class="st3" x1="238.8" y1="117.5" x2="238.8" y2="120.1"/>
		<line class="st3" x1="240.1" y1="108.7" x2="240.1" y2="115.9"/>
		<line class="st3" x1="240.1" y1="117.5" x2="240.1" y2="120.1"/>
		<line class="st3" x1="251.8" y1="108.7" x2="251.8" y2="115.9"/>
		<line class="st3" x1="251.8" y1="117.5" x2="251.8" y2="120.1"/>
		<line class="st3" x1="253.1" y1="108.7" x2="253.1" y2="120.1"/>
		<line class="st3" x1="252.8" y1="153.3" x2="252.8" y2="164.2"/>
		<line class="st3" x1="258" y1="158.8" x2="258" y2="164.2"/>
		<line class="st4" x1="270.4" y1="142.9" x2="270.4" y2="151.2"/>
		<line class="st3" x1="271" y1="153.3" x2="271" y2="164.2"/>
		<line class="st3" x1="270.2" y1="127.4" x2="270.2" y2="140.9"/>
		<polyline class="st3" points="270.4,119.9 270.4,120.1 270.9,120.1 270.9,119.9 270.9,119.9 270.9,120.1 270.4,120.1 270.4,119.9 
			270.4,119.9 		"/>
		<line class="st3" x1="270.9" y1="117.1" x2="270.9" y2="119.9"/>
		<polyline class="st3" points="270.4,117.1 270.4,116.8 270.9,116.8 270.9,117.1 270.9,117.1 270.9,116.8 270.4,116.8 270.4,117.1 
			270.4,117.1 		"/>
		<line class="st3" x1="270.2" y1="120.1" x2="270.9" y2="120.1"/>
		<line class="st4" x1="242.7" y1="151.2" x2="242.7" y2="143"/>
		<line class="st3" x1="204.5" y1="127.9" x2="239.5" y2="127.9"/>
		<line class="st3" x1="204.5" y1="127.4" x2="239.5" y2="127.4"/>
		<polyline class="st3" points="169.7,124.8 226.5,124.8 252.1,124.8 		"/>
		<line class="st3" x1="223.3" y1="141.5" x2="168" y2="141.5"/>
		<line class="st3" x1="167.4" y1="140.9" x2="167.4" y2="150"/>
		<line class="st3" x1="168" y1="141.5" x2="168" y2="150.5"/>
		<line class="st3" x1="167.4" y1="150" x2="141" y2="150"/>
		<line class="st3" x1="49.5" y1="170" x2="49.5" y2="121.1"/>
		<polyline class="st3" points="168,150.5 168,141.5 223.3,141.5 223.3,153.4 		"/>
		<line class="st3" x1="239.5" y1="151.8" x2="239.5" y2="152.8"/>
		<line class="st3" x1="236.9" y1="151.6" x2="236.9" y2="152.8"/>
		<line class="st3" x1="237" y1="151.6" x2="237" y2="152.8"/>
		<line class="st3" x1="234.3" y1="151.6" x2="234.3" y2="152.8"/>
		<line class="st3" x1="234.4" y1="151.6" x2="234.4" y2="152.8"/>
		<line class="st3" x1="231.7" y1="151.6" x2="231.7" y2="152.8"/>
		<line class="st3" x1="231.8" y1="151.6" x2="231.8" y2="152.8"/>
		<line class="st3" x1="229.1" y1="151.6" x2="229.1" y2="152.8"/>
		<line class="st3" x1="229.2" y1="151.6" x2="229.2" y2="152.8"/>
		<line class="st3" x1="226.5" y1="151.6" x2="226.5" y2="152.8"/>
		<line class="st3" x1="226.6" y1="151.6" x2="226.6" y2="152.8"/>
		<polyline class="st3" points="239.5,153.4 239.5,164.8 284,164.8 284,164.2 		"/>
		<line class="st3" x1="284" y1="164.5" x2="297.3" y2="164.5"/>
		<polyline class="st3" points="297.4,164.5 297.4,170 49.5,170 		"/>
		<line class="st3" x1="169.7" y1="130.5" x2="169.2" y2="130.5"/>
		<line class="st3" x1="185.7" y1="110.8" x2="199.9" y2="110.8"/>
		<line class="st3" x1="201.2" y1="110.8" x2="212.9" y2="110.8"/>
		<line class="st3" x1="214.2" y1="110.8" x2="218.6" y2="110.8"/>
		<line class="st3" x1="224.5" y1="110.8" x2="225.9" y2="110.8"/>
		<line class="st3" x1="227.2" y1="110.8" x2="238.8" y2="110.8"/>
		<line class="st3" x1="240.1" y1="110.8" x2="251.8" y2="110.8"/>
		<line class="st3" x1="170.1" y1="110.8" x2="184.4" y2="110.8"/>
		<line class="st3" x1="144.2" y1="64" x2="167.9" y2="64"/>
		<line class="st3" x1="167.9" y1="64" x2="167.9" y2="85.3"/>
		<line class="st3" x1="169.7" y1="130.5" x2="169.7" y2="127.9"/>
		<line class="st3" x1="169.7" y1="127.4" x2="169.7" y2="108.7"/>
		<line class="st3" x1="169.2" y1="130.5" x2="169.2" y2="108.7"/>
		<line class="st3" x1="167.9" y1="85.3" x2="167.9" y2="86.5"/>
		<line class="st3" x1="143.7" y1="134.8" x2="143.7" y2="134.8"/>
		<line class="st3" x1="167.4" y1="140.9" x2="167.4" y2="150"/>
		<line class="st3" x1="168" y1="141.5" x2="168" y2="150.5"/>
		<line class="st3" x1="167.4" y1="150" x2="141" y2="150"/>
		<line class="st3" x1="141" y1="150.5" x2="168" y2="150.5"/>
		<polyline class="st3" points="169.7,130.5 169.2,130.5 169.2,140.9 		"/>
		<line class="st3" x1="169.7" y1="130.5" x2="169.7" y2="140.9"/>
		<line class="st3" x1="167.4" y1="140.9" x2="168" y2="140.9"/>
		<polyline class="st3" points="252.2,105.9 252.2,105.6 252.7,105.6 252.7,105.9 252.7,105.9 252.7,105.6 252.2,105.6 252.2,105.9 
			252.2,105.9 		"/>
		<line class="st3" x1="270.4" y1="117.1" x2="270.4" y2="119.9"/>
		<line class="st3" x1="246.5" y1="101.8" x2="239.7" y2="101.8"/>
		<line class="st3" x1="239.2" y1="101.8" x2="226.8" y2="101.8"/>
		<line class="st3" x1="226.3" y1="101.8" x2="213.8" y2="101.8"/>
		<line class="st3" x1="213.3" y1="101.8" x2="200.8" y2="101.8"/>
		<line class="st3" x1="200.3" y1="101.8" x2="185.3" y2="101.8"/>
		<line class="st3" x1="184.8" y1="101.8" x2="169.7" y2="101.8"/>
		<line class="st3" x1="270.6" y1="116.1" x2="239.8" y2="97.2"/>
		<line class="st3" x1="270.4" y1="116.4" x2="239.7" y2="97.6"/>
		<line class="st3" x1="261.8" y1="110.7" x2="261.8" y2="110.7"/>
		<line class="st3" x1="261.9" y1="110.7" x2="261.8" y2="110.7"/>
		<line class="st3" x1="261.8" y1="110.7" x2="261.8" y2="110.7"/>
		<polyline class="st3" points="261.8,110.7 261.8,110.7 261.8,110.7 261.8,110.7 261.8,110.7 		"/>
		<polyline class="st3" points="261.8,110.7 261.8,110.7 261.8,110.7 		"/>
		<path class="st3" d="M261.8,110.7L261.8,110.7L261.8,110.7z"/>
		<polyline class="st3" points="261.8,110.7 261.8,110.7 261.8,110.7 		"/>
		<polyline class="st3" points="261.8,110.7 261.8,110.7 261.8,110.7 		"/>
		<path class="st3" d="M261.8,110.7L261.8,110.7L261.8,110.7z"/>
		<path class="st3" d="M261.8,110.7L261.8,110.7L261.8,110.7z"/>
		<line class="st3" x1="261.8" y1="110.7" x2="261.8" y2="110.7"/>
		<polyline class="st3" points="261.8,110.7 261.8,110.7 261.8,110.7 261.8,110.7 261.8,110.7 261.8,110.7 261.8,110.7 261.8,110.7 
			261.8,110.7 261.8,110.7 261.8,110.7 		"/>
		<line class="st3" x1="282.3" y1="164.2" x2="273.9" y2="164.2"/>
		<line class="st3" x1="285.3" y1="151.2" x2="273.9" y2="151.2"/>
		<line class="st3" x1="285.8" y1="151.8" x2="284" y2="151.8"/>
		<line class="st3" x1="283.2" y1="151.8" x2="273.9" y2="151.8"/>
		<polyline class="st3" points="285.8,140.9 285.8,142.3 285.8,144.9 285.8,146.6 285.8,146.5 		"/>
		<line class="st3" x1="284" y1="151.8" x2="284" y2="153.3"/>
		<line class="st3" x1="285.8" y1="148.1" x2="285.8" y2="151.8"/>
		<polyline class="st3" points="285.3,141.5 285.3,142.3 285.3,144.9 285.3,146.6 		"/>
		<line class="st3" x1="285.3" y1="148.1" x2="285.3" y2="151.2"/>
		<line class="st3" x1="285.3" y1="140.9" x2="273.9" y2="140.9"/>
		<line class="st3" x1="280.1" y1="138.5" x2="270.2" y2="138.5"/>
		<line class="st4" x1="285.3" y1="141.5" x2="273.9" y2="141.5"/>
		<polyline class="st3" points="273.9,153.3 283.2,153.3 284,153.3 		"/>
		<line class="st3" x1="283.2" y1="151.8" x2="283.2" y2="153.3"/>
		<line class="st3" x1="283.2" y1="163.2" x2="283.2" y2="164.2"/>
		<line class="st3" x1="285.3" y1="146.6" x2="285.3" y2="148.1"/>
		<line class="st3" x1="283.2" y1="153.3" x2="283.2" y2="163.2"/>
		<polyline class="st3" points="284,153.3 284,163.2 284,163.8 		"/>
		<line class="st3" x1="284.1" y1="163.2" x2="285.6" y2="153.3"/>
		<line class="st3" x1="279.7" y1="124.8" x2="278.6" y2="124.8"/>
		<line class="st3" x1="286.3" y1="137.1" x2="285.8" y2="137"/>
		<polyline class="st3" points="289.8,146.6 289.1,146.6 286.3,146.6 285.8,146.6 		"/>
		<line class="st3" x1="286.8" y1="148.3" x2="285.8" y2="148.2"/>
		<line class="st3" x1="284" y1="153.3" x2="285.6" y2="153.3"/>
		<line class="st3" x1="279.1" y1="124.8" x2="279.1" y2="123.2"/>
		<line class="st3" x1="278.6" y1="124.7" x2="278.6" y2="123.2"/>
		<line class="st3" x1="282" y1="123.2" x2="270.6" y2="116.1"/>
		<line class="st3" x1="278.6" y1="121.5" x2="270.4" y2="116.4"/>
		<line class="st3" x1="278.6" y1="124.8" x2="278.6" y2="127.4"/>
		<line class="st5" x1="285.8" y1="148.1" x2="285.3" y2="148.1"/>
		<line class="st5" x1="285.8" y1="146.6" x2="285.3" y2="146.6"/>
		<line class="st3" x1="286.3" y1="137.1" x2="289.8" y2="146.6"/>
		<line class="st3" x1="288.2" y1="135.5" x2="279.7" y2="124.8"/>
		<line class="st3" x1="285.3" y1="135.5" x2="279.1" y2="127.4"/>
		<line class="st3" x1="285.8" y1="137" x2="285.8" y2="135.5"/>
		<line class="st3" x1="285.3" y1="137" x2="285.3" y2="135.5"/>
		<line class="st3" x1="280.1" y1="138.5" x2="280.1" y2="135.4"/>
		<line class="st3" x1="285.3" y1="140.9" x2="285.3" y2="137"/>
		<polyline class="st3" points="285.8,140.9 285.8,137 285.3,137 		"/>
		<polyline class="st3" points="284,163.8 284,164.8 273.9,164.8 		"/>
		<line class="st3" x1="278.6" y1="123.2" x2="282" y2="123.2"/>
		<line class="st3" x1="285.3" y1="135.5" x2="288.2" y2="135.5"/>
		<line class="st3" x1="285.8" y1="146.6" x2="285.8" y2="148.1"/>
		<line class="st3" x1="284.5" y1="163.2" x2="285.5" y2="164.5"/>
		<line class="st3" x1="204" y1="130.5" x2="204" y2="140.9"/>
		<polyline class="st3" points="204.5,140.9 204.5,130.5 204.5,127.4 		"/>
		<line class="st3" x1="204" y1="130.5" x2="204" y2="127.9"/>
		<line class="st3" x1="283.2" y1="163.2" x2="284.5" y2="163.2"/>
		<line class="st3" x1="284.4" y1="163.2" x2="286.8" y2="148.3"/>
		<line class="st3" x1="278.6" y1="124.8" x2="278.6" y2="121.5"/>
		<line class="st3" x1="239.5" y1="152.8" x2="223.9" y2="152.8"/>
		<polyline class="st3" points="239.4,153.4 223.3,153.4 239.5,153.4 		"/>
		<line class="st3" x1="252.1" y1="153.3" x2="240.1" y2="153.3"/>
		<line class="st3" x1="281.7" y1="164.2" x2="277.3" y2="164.2"/>
		<line class="st4" x1="223.3" y1="141.5" x2="223.9" y2="141.5"/>
		<line class="st3" x1="170.1" y1="108.7" x2="170.1" y2="115.9"/>
		<line class="st3" x1="170.1" y1="117.5" x2="170.1" y2="120.1"/>
		<polyline class="st3" points="169.2,97.8 169.2,108.4 169.2,108.7 169.7,108.7 169.7,108.4 169.7,108.4 169.7,108.7 169.2,108.7 
			169.2,108.4 169.2,108.4 		"/>
		<line class="st3" x1="169.7" y1="97.8" x2="169.7" y2="108.4"/>
		<polyline class="st3" points="169.2,97.8 169.2,97.5 169.7,97.5 169.7,97.8 169.7,97.8 169.7,97.6 169.2,97.6 169.2,97.8 
			169.2,97.8 		"/>
		<line class="st4" x1="224.2" y1="141.5" x2="223.9" y2="141.5"/>
		<line class="st3" x1="223.3" y1="141.5" x2="212.3" y2="141.5"/>
		<line class="st3" x1="204" y1="127.4" x2="204.5" y2="127.4"/>
		<line class="st3" x1="198.6" y1="127.9" x2="198.6" y2="127.4"/>
		<polyline class="st3" points="175.2,127.9 175.2,127.4 198.6,127.4 		"/>
		<line class="st3" x1="198.6" y1="127.9" x2="175.2" y2="127.9"/>
		<line class="st3" x1="252.8" y1="127.4" x2="252.8" y2="120.1"/>
		<line class="st3" x1="252.1" y1="127.4" x2="252.1" y2="120.1"/>
		<line class="st4" x1="238.7" y1="151.2" x2="238.7" y2="141.5"/>
		<line class="st4" x1="239.1" y1="151" x2="239.1" y2="145.8"/>
		<line class="st4" x1="239.1" y1="145.5" x2="239.1" y2="142.9"/>
		<polyline class="st3" points="239.5,151.2 238.7,151.2 238.7,151.8 239.5,151.8 		"/>
		<line class="st3" x1="224.2" y1="151.6" x2="223.9" y2="151.6"/>
		<polyline class="st4" points="241.7,151 241.7,145.8 241.7,141.5 		"/>
		<line class="st4" x1="241.7" y1="145.8" x2="239.1" y2="145.8"/>
		<polyline class="st4" points="241.4,145.5 241.4,141.5 241.7,141.5 241.7,145.8 		"/>
		<line class="st3" x1="241.7" y1="151" x2="241.7" y2="151.2"/>
		<line class="st4" x1="241.4" y1="151" x2="241.4" y2="145.8"/>
		<line class="st4" x1="239.1" y1="145.5" x2="241.4" y2="145.5"/>
		<line class="st4" x1="251.9" y1="142.9" x2="253" y2="142.9"/>
		<line class="st3" x1="212.9" y1="116.2" x2="169.7" y2="116.2"/>
		<polyline class="st3" points="169.7,117.5 212.9,117.5 221.5,117.5 227.2,117.5 240.1,117.5 		"/>
		<line class="st3" x1="253.1" y1="117.5" x2="251.8" y2="117.5"/>
		<line class="st3" x1="253.1" y1="116.2" x2="224.5" y2="116.2"/>
		<line class="st3" x1="218.6" y1="116.2" x2="200" y2="116.2"/>
		<line class="st3" x1="253.1" y1="115.9" x2="224.5" y2="115.9"/>
		<line class="st3" x1="218.6" y1="115.9" x2="169.7" y2="115.9"/>
		<line class="st3" x1="266.7" y1="164.2" x2="266.7" y2="158.8"/>
		<line class="st3" x1="264.1" y1="164.2" x2="264.1" y2="158.8"/>
		<polyline class="st3" points="264.1,135.4 266.7,135.4 266.7,140.9 		"/>
		<line class="st3" x1="264.1" y1="140.9" x2="264.1" y2="135.4"/>
		<line class="st3" x1="251.8" y1="117.5" x2="240.1" y2="117.5"/>
		<line class="st3" x1="169.2" y1="97.5" x2="167.5" y2="86.9"/>
		<line class="st3" x1="169.5" y1="97.2" x2="167.9" y2="86.9"/>
		<line class="st3" x1="239.5" y1="127.4" x2="252.1" y2="127.4"/>
		<line class="st3" x1="252.8" y1="127.4" x2="268.5" y2="127.4"/>
		<line class="st3" x1="270.2" y1="127.4" x2="279.1" y2="127.4"/>
		<line class="st3" x1="239.5" y1="127.9" x2="252.1" y2="127.9"/>
		<line class="st3" x1="268.5" y1="127.4" x2="268.5" y2="120.5"/>
		<line class="st3" x1="49.5" y1="121.1" x2="54.8" y2="121.1"/>
		<line class="st3" x1="61.8" y1="121.1" x2="62.6" y2="121.1"/>
		<polyline class="st3" points="83.7,113 83.7,113 83.7,113 83.7,113.1 83.7,113.2 83.7,113.3 83.7,113.4 83.7,113.6 83.7,113.9 
			83.7,114 83.7,114.1 83.7,114.2 83.7,114.2 83.7,114.3 83.7,114.3 80.4,114.3 80.4,114.3 80.4,114.2 80.4,114.2 80.4,114.1 
			80.4,114 80.4,113.9 80.4,113.6 80.4,113.4 80.4,113.3 80.4,113.2 80.4,113.1 80.4,113 80.4,113 80.4,113 83.7,113 		"/>
		<polyline class="st3" points="132.6,120.1 132.6,114.4 129.9,114.4 129.9,120.1 		"/>
		<path class="st3" d="M62.3,120.1L62.3,120.1L62.3,120.1z"/>
		<line class="st3" x1="130.8" y1="114.4" x2="130.8" y2="120.1"/>
		<line class="st3" x1="127.5" y1="80" x2="127.5" y2="80"/>
		<line class="st3" x1="127.8" y1="80" x2="133.9" y2="80"/>
		<line class="st3" x1="62.5" y1="120.1" x2="62.6" y2="120.1"/>
		<polyline class="st3" points="62.6,121.1 62.5,121.1 62.5,120.1 54,120.1 		"/>
		<polyline class="st3" points="62.5,121.1 61.8,121.1 61.8,120.6 54.8,120.6 54.8,121.1 54,121.1 54,120.1 		"/>
		<polyline class="st3" points="137.2,80 137.2,79.3 127,79.3 		"/>
		<line class="st3" x1="137.2" y1="80" x2="127" y2="80"/>
		<line class="st3" x1="137.9" y1="114.4" x2="138.9" y2="114.4"/>
		<line class="st3" x1="137.7" y1="120.1" x2="138.9" y2="120.1"/>
		<line class="st3" x1="127.9" y1="125.3" x2="121.4" y2="125.3"/>
		<line class="st3" x1="83.7" y1="114.3" x2="80.4" y2="114.3"/>
		<polyline class="st3" points="118,113 118,113 118,113 118,113.1 118,113.2 118,113.3 118,113.4 118,113.6 118,113.9 118,114 
			118,114.1 118,114.2 118,114.2 118,114.3 118,114.3 121.2,114.3 121.2,114.3 121.2,114.2 121.2,114.2 121.2,114.1 121.2,114 
			121.2,113.9 121.2,113.6 121.2,113.4 121.2,113.3 121.2,113.2 121.2,113.1 121.2,113 121.2,113 121.2,113 118,113 		"/>
		<line class="st3" x1="118" y1="114.3" x2="121.2" y2="114.3"/>
		<line class="st3" x1="137.1" y1="120.1" x2="137.1" y2="114.4"/>
		<line class="st3" x1="138.2" y1="120.1" x2="138.2" y2="114.4"/>
		<line class="st3" x1="137.9" y1="114.4" x2="137.1" y2="114.4"/>
		<line class="st3" x1="105.3" y1="88.6" x2="105.3" y2="86.8"/>
		<line class="st3" x1="96" y1="88.6" x2="96" y2="86.8"/>
		<line class="st3" x1="105.3" y1="101.2" x2="105.3" y2="99.2"/>
		<polyline class="st3" points="96,101.2 96,99.2 105.3,99.2 		"/>
		<line class="st3" x1="96" y1="99.4" x2="105.3" y2="99.4"/>
		<line class="st3" x1="96" y1="99.6" x2="105.3" y2="99.6"/>
		<line class="st3" x1="96" y1="100.9" x2="105.3" y2="100.9"/>
		<line class="st3" x1="96" y1="101.2" x2="105.3" y2="101.2"/>
		<line class="st3" x1="96" y1="86.8" x2="105.3" y2="86.8"/>
		<line class="st3" x1="96" y1="87.1" x2="105.3" y2="87.1"/>
		<line class="st3" x1="96" y1="88.4" x2="105.3" y2="88.4"/>
		<line class="st3" x1="96" y1="88.6" x2="105.3" y2="88.6"/>
		<line class="st3" x1="96" y1="99.2" x2="96" y2="97.2"/>
		<line class="st3" x1="95.9" y1="99.2" x2="95.9" y2="97.2"/>
		<line class="st3" x1="95.9" y1="97.2" x2="105.4" y2="97.2"/>
		<line class="st3" x1="96" y1="97.3" x2="105.3" y2="97.3"/>
		<line class="st3" x1="105.3" y1="99.2" x2="105.3" y2="97.2"/>
		<line class="st3" x1="105.5" y1="99.2" x2="105.5" y2="97.2"/>
		<line class="st3" x1="98.9" y1="99.2" x2="98.9" y2="97.3"/>
		<line class="st3" x1="99" y1="99.2" x2="99" y2="97.3"/>
		<line class="st3" x1="100.7" y1="99.2" x2="100.7" y2="97.3"/>
		<line class="st3" x1="100.8" y1="99.2" x2="100.8" y2="97.3"/>
		<line class="st3" x1="102.4" y1="99.2" x2="102.4" y2="97.3"/>
		<line class="st3" x1="102.3" y1="99.2" x2="102.3" y2="97.3"/>
		<line class="st3" x1="104" y1="99.2" x2="104" y2="97.3"/>
		<line class="st3" x1="103.8" y1="99.2" x2="103.8" y2="97.3"/>
		<line class="st3" x1="97.4" y1="99.2" x2="97.4" y2="97.3"/>
		<line class="st3" x1="97.5" y1="99.2" x2="97.5" y2="97.3"/>
		<line class="st3" x1="96.3" y1="99.2" x2="96.3" y2="97.3"/>
		<line class="st3" x1="96.5" y1="99.2" x2="96.5" y2="97.3"/>
		<line class="st3" x1="105" y1="99.2" x2="105" y2="97.3"/>
		<line class="st3" x1="104.8" y1="99.2" x2="104.8" y2="97.3"/>
		<path class="st3" d="M95.9,97.2L95.9,97.2C95.8,97.3,95.9,97.3,95.9,97.2C96,97.3,96,97.3,95.9,97.2C96,97.2,96,97.2,95.9,97.2z"
			/>
		<path class="st3" d="M105.4,97.2C105.4,97.2,105.3,97.2,105.4,97.2C105.3,97.3,105.4,97.3,105.4,97.2
			C105.4,97.3,105.5,97.3,105.4,97.2C105.5,97.2,105.4,97.2,105.4,97.2z"/>
		<line class="st3" x1="113.8" y1="120.1" x2="113.8" y2="114.4"/>
		<polyline class="st3" points="116.4,120.1 116.4,114.4 113.8,114.4 		"/>
		<polyline class="st3" points="62,85.3 64.6,85.3 64.6,87.9 63.8,88.6 63.8,129 65.9,129 65.9,132.1 60.7,132.1 60.7,129 62.8,129 
			62.8,88.6 62,87.9 62,85.3 		"/>
		<polyline class="st3" points="63.9,120.5 80.3,120.5 80.3,120.1 63.9,120.1 63.9,120.5 		"/>
		<polyline class="st3" points="121.4,120.5 137.8,120.5 137.8,120.1 121.4,120.1 121.4,120.5 		"/>
		<polyline class="st3" points="141,153.2 141,150.1 138.9,150.1 138.9,120.1 		"/>
		<polyline class="st3" points="138.9,114.4 138.9,88.6 139.7,87.9 139.7,85.3 137.1,85.3 137.1,87.9 137.9,88.6 137.9,114.4 		"/>
		<polyline class="st3" points="137.9,120.1 137.9,153.2 141,153.2 		"/>
		<polyline class="st3" points="82.2,81.6 82.2,83.7 81.7,84.1 81.7,101.2 83.7,101.2 83.7,113 		"/>
		<polyline class="st3" points="83.7,114.3 83.7,125.3 118,125.3 118,114.3 		"/>
		<polyline class="st3" points="118,113 118,101.2 120,101.2 120,84.1 119.5,83.7 119.5,81.6 121.7,81.6 121.7,85.4 121.2,85.9 
			121.2,113 		"/>
		<polyline class="st3" points="121.2,114.3 121.2,125.3 128.1,125.3 128.1,130.5 73.6,130.5 73.6,125.3 80.4,125.3 80.4,114.3 		
			"/>
		<polyline class="st3" points="80.4,113 80.4,85.9 79.9,85.4 79.9,81.6 82.2,81.6 		"/>
		<polyline class="st3" points="83.7,120.5 99.1,120.5 99.1,120.1 83.7,120.1 83.7,120.5 		"/>
		<polyline class="st3" points="102.5,120.5 118,120.5 118,120.1 102.5,120.1 102.5,120.5 		"/>
		<polyline class="st3" points="99.5,120.1 99.5,121.4 102.1,121.4 102.1,120.1 102.5,120.1 102.5,121.8 99.1,121.8 99.1,120.1 
			99.5,120.1 		"/>
		<polyline class="st3" points="96,100.9 81.7,100.9 81.7,101.2 96,101.2 		"/>
		<polyline class="st3" points="105.3,101.2 120,101.2 120,100.9 105.3,100.9 		"/>
		<polyline class="st3" points="105.3,99.6 120,99.6 120,100.9 105.3,100.9 		"/>
		<polyline class="st3" points="96,100.9 81.7,100.9 81.7,99.6 96,99.6 		"/>
		<polyline class="st3" points="105.3,99.6 120,99.6 120,99.4 105.3,99.4 		"/>
		<polyline class="st3" points="96,99.4 81.7,99.4 81.7,99.6 96,99.6 		"/>
		<polyline class="st3" points="63.8,91.9 80,91.9 80,89.7 63.8,89.7 63.8,91.9 		"/>
		<polyline class="st3" points="80,89.7 63.8,89.7 63.8,89.3 80,89.3 80,89.7 		"/>
		<polyline class="st3" points="105.3,88.6 120,88.6 120,88.4 105.3,88.4 		"/>
		<polyline class="st3" points="96,88.4 81.7,88.4 81.7,88.6 96,88.6 		"/>
		<polyline class="st3" points="105.3,87.1 120,87.1 120,88.4 105.3,88.4 		"/>
		<polyline class="st3" points="96,88.4 81.7,88.4 81.7,87.1 96,87.1 		"/>
		<polyline class="st3" points="105.3,87.1 120,87.1 120,86.8 105.3,86.8 		"/>
		<polyline class="st3" points="96,86.8 81.7,86.8 81.7,87.1 96,87.1 		"/>
		<polyline class="st3" points="121.7,91.9 137.9,91.9 137.9,89.7 121.7,89.7 121.7,91.9 		"/>
		<polyline class="st3" points="137.9,89.7 121.7,89.7 121.7,89.3 137.9,89.3 137.9,89.7 		"/>
		<polyline class="st3" points="126.9,79.3 121.7,79.3 121.7,79.8 126.9,79.8 126.9,79.3 		"/>
		<polyline class="st3" points="122.2,85.4 121.7,85.4 121.7,79.8 122.2,79.8 122.2,85.4 122.2,85 126.6,79.8 126.9,79.8 
			122.2,85.4 		"/>
		<line class="st3" x1="122.5" y1="82.8" x2="121.3" y2="82.8"/>
		<line class="st3" x1="121.3" y1="83.7" x2="122.5" y2="83.7"/>
		<polyline class="st3" points="74.7,79.3 79.9,79.3 79.9,79.8 74.7,79.8 74.7,79.3 		"/>
		<polyline class="st3" points="79.4,85.4 79.9,85.4 79.9,79.8 79.4,79.8 79.4,85.4 79.4,85 75.1,79.8 74.7,79.8 79.4,85.4 		"/>
		<line class="st3" x1="79.1" y1="82.8" x2="80.3" y2="82.8"/>
		<line class="st3" x1="80.3" y1="83.7" x2="79.1" y2="83.7"/>
		<line class="st3" x1="99.5" y1="120.1" x2="102.1" y2="120.1"/>
		<line class="st3" x1="127" y1="79.3" x2="127" y2="80"/>
		<polyline class="st3" points="102,85.5 99.4,85.5 99.4,85.4 86.5,81.9 82.2,81.9 82.2,81.6 79.9,81.6 79.9,79.3 85.7,79.3 
			91.2,74.2 87.6,60.7 89.5,57.9 92,57.2 92,57.3 95.8,54.5 95.7,54.2 100.2,53 99.5,50.5 100,50.3 100,50.2 100.3,50.1 100.3,50.2 
			102.5,49.6 102.6,49.6 103.5,53 106.8,53.2 107,53.2 108.1,52.6 108.1,52.4 110.3,51.9 110.4,51.9 110.8,53.2 111.1,53.2 
			111.1,53 111.5,52.8 110.8,50.1 111.5,49.9 112.3,52.7 116.6,58.7 117,58.8 117.1,58.8 117.8,59 117.9,59.4 119.4,59 120.9,64.7 
			119.4,65.1 119.4,65.3 119,65.8 118.6,65.9 117.9,73.5 118.6,76.3 117.8,76.5 117.1,73.8 116.7,73.9 116.6,73.6 116.3,73.8 
			116.6,75.1 116.5,75.2 116.4,75.2 114.3,75.8 114.1,75 112.3,76.2 115.4,79.1 121.7,79.1 121.7,81.6 119.5,81.6 119.1,81.9 
			114.9,81.9 102,85.4 102,85.5 		"/>
		<line class="st3" x1="64.6" y1="87.9" x2="80.4" y2="87.9"/>
		<line class="st3" x1="63.8" y1="88.6" x2="80.4" y2="88.6"/>
		<polyline class="st3" points="85.5,79.3 86.7,77.1 87.1,76.6 90.8,72.8 90.4,71.2 85.4,76.3 84.7,76.3 83.4,78.6 83.4,79.3 
			85.5,79.3 		"/>
		<line class="st3" x1="84.6" y1="74.4" x2="76.6" y2="74.4"/>
		<path class="st3" d="M76.6,74.4c-0.1,0-0.2,0.1-0.2,0.2l0,0"/>
		<polyline class="st3" points="76.4,74.6 76.4,78.5 78.4,78.5 78.4,79.1 78,79.1 78,79.3 80.3,79.3 80.3,79.1 80,79.1 80,78.5 
			82.3,78.5 82.3,76.3 		"/>
		<path class="st3" d="M82.3,76.3c0-0.1-0.1-0.3-0.3-0.3l0,0"/>
		<polyline class="st3" points="82,76 79.1,76 79.1,75.6 84,75.6 84.1,75.2 84.6,74.4 		"/>
		<polyline class="st3" points="89.9,69.5 85.6,73.9 84.9,73.9 		"/>
		<path class="st3" d="M84.9,73.9C84.8,73.9,84.8,73.9,84.9,73.9"/>
		<line class="st3" x1="84.8" y1="74" x2="83.4" y2="76.5"/>
		<path class="st3" d="M83.4,76.5L83.4,76.5"/>
		<polyline class="st3" points="83.4,76.6 83.4,78.9 83.6,78.9 		"/>
		<polyline class="st3" points="137.8,120.5 121.2,120.5 121.2,125.3 128.1,125.3 128.1,130.5 		"/>
		<polyline class="st3" points="137.9,130.5 137.9,120.5 137.8,120.5 		"/>
		<polyline class="st3" points="61.8,121.1 61.8,120.6 54.8,120.6 54.8,121.1 		"/>
		<line class="st3" x1="252.1" y1="127.4" x2="252.1" y2="140.9"/>
		<line class="st3" x1="252.8" y1="120.5" x2="268.5" y2="120.5"/>
		<line class="st3" x1="253" y1="135.4" x2="253" y2="140.9"/>
		<polyline class="st3" points="257.9,140.9 257.9,135.4 253,135.4 		"/>
		<line class="st3" x1="270.2" y1="135.4" x2="280.1" y2="135.4"/>
		<line class="st4" x1="270.4" y1="142.9" x2="253" y2="142.9"/>
		<line class="st4" x1="253" y1="142.8" x2="270.4" y2="142.8"/>
		<line class="st4" x1="241.7" y1="142.9" x2="251.9" y2="142.9"/>
		<line class="st4" x1="251.9" y1="142.8" x2="241.7" y2="142.8"/>
		<line class="st4" x1="285.3" y1="142.9" x2="271.4" y2="142.9"/>
		<line class="st4" x1="271.4" y1="142.8" x2="285.3" y2="142.8"/>
		<polyline class="st3" points="61.4,85.3 79.3,85.3 74.7,79.8 74.7,79.3 79.9,79.3 79.9,81.6 82.2,81.6 82.2,83.7 93,83.7 
			119.5,83.7 119.5,81.6 121.7,81.6 121.7,79.3 137.2,79.3 137.2,80 127,80 126.7,80.1 122.2,85.4 121.7,85.4 121.2,85.9 
			121.2,89.3 137.9,89.3 137.9,88.6 137.1,87.9 137.1,85.3 139.7,85.3 139.7,82.5 143.5,82.5 143.5,79.2 144.2,79.2 144.2,34 
			96.1,21.6 87.8,21.6 87,22.3 87,25.2 84.8,25.2 60.8,36.4 60.8,61.2 57.7,62.5 57.7,63.3 58.6,63.3 58.7,65.1 58.2,65.1 
			58.2,78.5 58.7,78.5 58.7,79.8 61.4,79.8 61.4,85.3 		"/>
		<polyline class="st3" points="140.3,143.3 141.5,143.3 141.5,150 140.3,150 140.3,143.3 		"/>
		<polyline class="st3" points="153,143.3 154.2,143.3 154.2,150 153,150 153,143.3 		"/>
		<polyline class="st3" points="165.7,143.3 166.9,143.3 166.9,150 165.7,150 165.7,143.3 		"/>
		<line class="st3" x1="154.2" y1="109.7" x2="154.2" y2="126.3"/>
		<polyline class="st3" points="154.2,127.1 154.2,141 153,141 153,127.1 		"/>
		<line class="st3" x1="153" y1="126.3" x2="153" y2="109.7"/>
		<polyline class="st3" points="153,108.8 153,88.5 154.2,88.5 154.2,108.8 		"/>
		<polyline class="st3" points="140.3,88.5 141.4,88.5 141.4,141 140.3,141 140.3,88.5 		"/>
		<polyline class="st3" points="165.7,88.5 166.9,88.5 166.9,141 165.7,141 165.7,88.5 		"/>
		<polyline class="st3" points="141.5,108.8 165.7,108.8 165.7,109.7 141.5,109.7 141.5,108.8 		"/>
		<polyline class="st3" points="141.4,126.3 165.7,126.3 165.7,127.1 141.4,127.1 141.4,126.3 		"/>
		<polyline class="st3" points="140.3,141 166.9,141 166.9,143.3 140.3,143.3 140.3,141 		"/>
		<polyline class="st3" points="141.4,91.9 145.8,91.9 145.8,88.5 141.4,88.5 141.4,91.9 		"/>
		<polyline class="st3" points="161.3,91.9 165.7,91.9 165.7,88.5 161.3,88.5 161.3,91.9 		"/>
		<polyline class="st3" points="140.3,88.5 166.9,88.5 166.9,86.9 140.3,86.9 140.3,88.5 		"/>
		<line class="st3" x1="141.4" y1="91.9" x2="153" y2="108.8"/>
		<line class="st3" x1="141.5" y1="108.8" x2="153" y2="91.9"/>
		<line class="st3" x1="141.5" y1="150" x2="153" y2="127.2"/>
		<polyline class="st3" points="148.7,91.9 153,91.9 153,88.5 148.7,88.5 148.7,91.9 		"/>
		<line class="st3" x1="165.7" y1="91.9" x2="154.2" y2="108.8"/>
		<polyline class="st3" points="165.7,108.8 154.2,91.9 158.5,91.9 		"/>
		<polyline class="st3" points="154.2,91.9 154.2,88.5 158.5,88.5 158.5,91.9 		"/>
		<line class="st3" x1="141.4" y1="109.7" x2="153" y2="126.3"/>
		<line class="st3" x1="141.5" y1="126.3" x2="153" y2="109.7"/>
		<line class="st3" x1="165.7" y1="109.7" x2="154.2" y2="126.3"/>
		<line class="st3" x1="165.7" y1="126.3" x2="154.2" y2="109.7"/>
		<line class="st3" x1="141.4" y1="127.1" x2="153" y2="150"/>
		<line class="st3" x1="154.2" y1="150" x2="165.7" y2="127.1"/>
		<line class="st3" x1="154.2" y1="127.1" x2="165.7" y2="150"/>
		<polyline class="st3" points="65.5,112.1 71.8,112.1 71.8,113.1 65.5,113.1 65.5,112.1 		"/>
		<polyline class="st3" points="122,112.1 128.3,112.1 128.3,113.1 122,113.1 122,112.1 		"/>
		<polyline class="st3" points="218.6,110.2 224.5,110.2 224.5,116.6 218.6,116.6 218.6,110.2 		"/>
		<line class="st4" x1="223.3" y1="141.5" x2="223.9" y2="140.9"/>
		<line class="st5" x1="223.3" y1="142.3" x2="224.7" y2="140.9"/>
		<line class="st5" x1="223.3" y1="143.1" x2="225.5" y2="140.9"/>
		<line class="st5" x1="223.3" y1="143.9" x2="226.3" y2="140.9"/>
		<line class="st5" x1="223.3" y1="144.7" x2="227.1" y2="140.9"/>
		<line class="st5" x1="223.3" y1="145.5" x2="227.9" y2="140.9"/>
		<line class="st5" x1="223.3" y1="146.4" x2="228.8" y2="140.9"/>
		<line class="st5" x1="223.3" y1="147.2" x2="229.6" y2="140.9"/>
		<line class="st5" x1="223.3" y1="148" x2="230.4" y2="140.9"/>
		<line class="st5" x1="223.3" y1="148.8" x2="231.2" y2="140.9"/>
		<line class="st5" x1="223.3" y1="149.6" x2="232" y2="140.9"/>
		<line class="st5" x1="223.3" y1="150.4" x2="232.8" y2="140.9"/>
		<line class="st5" x1="223.3" y1="151.2" x2="233.6" y2="140.9"/>
		<line class="st5" x1="224.1" y1="151.2" x2="234.5" y2="140.9"/>
		<line class="st5" x1="224.9" y1="151.2" x2="235.3" y2="140.9"/>
		<line class="st5" x1="225.7" y1="151.2" x2="236.1" y2="140.9"/>
		<line class="st5" x1="226.5" y1="151.2" x2="236.9" y2="140.9"/>
		<line class="st5" x1="227.4" y1="151.2" x2="237.7" y2="140.9"/>
		<line class="st5" x1="228.2" y1="151.2" x2="238.5" y2="140.9"/>
		<line class="st5" x1="229" y1="151.2" x2="239.4" y2="140.9"/>
		<line class="st5" x1="229.8" y1="151.2" x2="240.2" y2="140.9"/>
		<line class="st5" x1="230.6" y1="151.2" x2="241" y2="140.9"/>
		<line class="st5" x1="231.4" y1="151.2" x2="241.8" y2="140.9"/>
		<line class="st5" x1="232.2" y1="151.2" x2="242.6" y2="140.9"/>
		<line class="st5" x1="233.1" y1="151.2" x2="243.4" y2="140.9"/>
		<line class="st5" x1="233.9" y1="151.2" x2="244.2" y2="140.9"/>
		<line class="st5" x1="234.7" y1="151.2" x2="245.1" y2="140.9"/>
		<line class="st5" x1="235.5" y1="151.2" x2="245.9" y2="140.9"/>
		<line class="st5" x1="236.3" y1="151.2" x2="246.7" y2="140.9"/>
		<line class="st5" x1="237.1" y1="151.2" x2="247.5" y2="140.9"/>
		<line class="st5" x1="238" y1="151.2" x2="248.3" y2="140.9"/>
		<line class="st5" x1="238.8" y1="151.2" x2="249.1" y2="140.9"/>
		<line class="st5" x1="239.6" y1="151.2" x2="250" y2="140.9"/>
		<line class="st5" x1="240.4" y1="151.2" x2="250.8" y2="140.9"/>
		<line class="st5" x1="241.2" y1="151.2" x2="251.6" y2="140.9"/>
		<line class="st5" x1="242" y1="151.2" x2="252.4" y2="140.9"/>
		<line class="st5" x1="242.8" y1="151.2" x2="253.2" y2="140.9"/>
		<line class="st5" x1="243.7" y1="151.2" x2="254" y2="140.9"/>
		<line class="st5" x1="244.5" y1="151.2" x2="254.8" y2="140.9"/>
		<line class="st5" x1="245.3" y1="151.2" x2="255.7" y2="140.9"/>
		<line class="st5" x1="246.1" y1="151.2" x2="256.5" y2="140.9"/>
		<line class="st5" x1="246.9" y1="151.2" x2="257.3" y2="140.9"/>
		<line class="st5" x1="247.7" y1="151.2" x2="258.1" y2="140.9"/>
		<line class="st5" x1="248.6" y1="151.2" x2="258.9" y2="140.9"/>
		<line class="st5" x1="249.4" y1="151.2" x2="259.7" y2="140.9"/>
		<line class="st5" x1="250.2" y1="151.2" x2="260.6" y2="140.9"/>
		<line class="st5" x1="251" y1="151.2" x2="261.4" y2="140.9"/>
		<line class="st5" x1="251.8" y1="151.2" x2="262.2" y2="140.9"/>
		<line class="st5" x1="252.6" y1="151.2" x2="263" y2="140.9"/>
		<line class="st5" x1="253.4" y1="151.2" x2="263.8" y2="140.9"/>
		<line class="st5" x1="254.3" y1="151.2" x2="264.6" y2="140.9"/>
		<line class="st5" x1="255.1" y1="151.2" x2="265.4" y2="140.9"/>
		<line class="st5" x1="255.9" y1="151.2" x2="266.3" y2="140.9"/>
		<line class="st5" x1="256.7" y1="151.2" x2="267.1" y2="140.9"/>
		<line class="st5" x1="257.5" y1="151.2" x2="267.9" y2="140.9"/>
		<line class="st5" x1="258.3" y1="151.2" x2="268.7" y2="140.9"/>
		<line class="st5" x1="259.1" y1="151.2" x2="269.5" y2="140.9"/>
		<line class="st5" x1="260" y1="151.2" x2="270.3" y2="140.9"/>
		<line class="st5" x1="260.8" y1="151.2" x2="271.2" y2="140.9"/>
		<line class="st5" x1="261.6" y1="151.2" x2="272" y2="140.9"/>
		<line class="st5" x1="262.4" y1="151.2" x2="272.8" y2="140.9"/>
		<line class="st5" x1="263.2" y1="151.2" x2="273.6" y2="140.9"/>
		<line class="st5" x1="264" y1="151.2" x2="274.4" y2="140.9"/>
		<line class="st5" x1="264.9" y1="151.2" x2="275.2" y2="140.9"/>
		<line class="st5" x1="265.7" y1="151.2" x2="276" y2="140.9"/>
		<line class="st5" x1="266.5" y1="151.2" x2="276.9" y2="140.9"/>
		<line class="st5" x1="267.3" y1="151.2" x2="277.7" y2="140.9"/>
		<line class="st5" x1="268.1" y1="151.2" x2="278.5" y2="140.9"/>
		<line class="st5" x1="268.9" y1="151.2" x2="279.3" y2="140.9"/>
		<line class="st5" x1="269.7" y1="151.2" x2="280.1" y2="140.9"/>
		<line class="st5" x1="270.6" y1="151.2" x2="280.9" y2="140.9"/>
		<line class="st5" x1="271.4" y1="151.2" x2="281.8" y2="140.9"/>
		<line class="st5" x1="272.2" y1="151.2" x2="282.6" y2="140.9"/>
		<line class="st5" x1="273" y1="151.2" x2="283.4" y2="140.9"/>
		<line class="st5" x1="273.8" y1="151.2" x2="284.2" y2="140.9"/>
		<line class="st5" x1="274.6" y1="151.2" x2="285" y2="140.9"/>
		<line class="st5" x1="275.5" y1="151.2" x2="285.8" y2="140.9"/>
		<line class="st5" x1="276.3" y1="151.2" x2="285.8" y2="141.7"/>
		<line class="st5" x1="277.1" y1="151.2" x2="285.8" y2="142.5"/>
		<line class="st5" x1="277.9" y1="151.2" x2="285.8" y2="143.4"/>
		<line class="st5" x1="278.7" y1="151.2" x2="285.8" y2="144.2"/>
		<line class="st5" x1="279.5" y1="151.2" x2="285.8" y2="145"/>
		<line class="st5" x1="280.3" y1="151.2" x2="285.8" y2="145.8"/>
		<line class="st5" x1="281.2" y1="151.2" x2="285.8" y2="146.6"/>
		<line class="st5" x1="282" y1="151.2" x2="285.8" y2="147.4"/>
		<line class="st5" x1="282.8" y1="151.2" x2="285.8" y2="148.2"/>
		<line class="st5" x1="283.6" y1="151.2" x2="285.8" y2="149.1"/>
		<line class="st5" x1="284.4" y1="151.2" x2="285.8" y2="149.9"/>
		<line class="st5" x1="285.2" y1="151.2" x2="285.8" y2="150.7"/>
		<polygon class="st6" points="223.3,140.9 223.3,151.2 285.8,151.2 285.8,140.9 224.3,140.9 		"/>
	</g>
</g>
</svg>
